<svg width="75" height="22" viewBox="0 0 75 22" fill="none" xmlns="http://www.w3.org/2000/svg">
<path d="M42.0198 11.2786C42.0869 11.2872 42.1552 11.2933 42.2247 11.2933H46.2399C46.9541 11.2933 47.5676 10.7201 47.5796 9.98702C47.5903 9.24406 47.008 8.63888 46.2867 8.63888H43.5799C43.5775 8.63888 43.5763 8.63765 43.5763 8.63519V3.88471C43.5763 3.88225 43.5775 3.88102 43.5799 3.88102H45.7978C46.5119 3.88102 47.1254 3.30782 47.1374 2.5747C47.1482 1.83175 46.5659 1.22656 45.8445 1.22656H41.7334C41.7106 1.22656 41.6891 1.22902 41.6675 1.23025C41.6459 1.22902 41.6244 1.22656 41.6016 1.22656H36.1197C35.5146 1.22656 35.0233 1.73089 35.0233 2.35206V9.40151C35.0233 10.4471 35.8489 11.2946 36.8674 11.2946H41.8341C41.8976 11.2946 41.9599 11.2884 42.0198 11.2786ZM40.637 8.64011H37.9626C37.9602 8.64011 37.959 8.63888 37.959 8.63642V3.88471C37.959 3.88225 37.9602 3.88102 37.9626 3.88102H40.637C40.6394 3.88102 40.6406 3.88225 40.6406 3.88471V8.63642C40.6406 8.63765 40.6394 8.64011 40.637 8.64011Z" fill="#FF0049"/>
<path d="M50.5883 13.7295H38.3747C37.657 13.7295 37.0399 14.3064 37.0267 15.0432C37.0135 15.7948 37.6031 16.4073 38.3316 16.4073H48.6052V20.3533C48.6052 21.2255 49.2942 21.9315 50.1425 21.9315C50.9921 21.9315 51.6799 21.2242 51.6799 20.3533V14.8501C51.6811 14.2314 51.191 13.7295 50.5883 13.7295Z" fill="#FF0049"/>
<path d="M52.9885 4.93048H51.68V2.12841C51.68 1.27845 51.0437 0.546563 50.217 0.507201C49.3339 0.464149 48.6053 1.18619 48.6053 2.08413V11.1509C48.6053 12.0008 49.2416 12.7327 50.0684 12.7721C50.9515 12.8151 51.68 12.0919 51.68 11.1952V7.60954H53.0316C53.7601 7.60954 54.3497 6.99574 54.3365 6.24541C54.3233 5.50738 53.7074 4.93048 52.9885 4.93048Z" fill="#FF0049"/>
<path d="M73.8245 9.4751H57.0733C56.4238 9.4751 55.8966 10.0163 55.8966 10.683C55.8966 11.3497 56.4238 11.8909 57.0733 11.8909H73.8233C74.4728 11.8909 75 11.3497 75 10.683C75.0012 10.0163 74.474 9.4751 73.8245 9.4751Z" fill="#FF0049"/>
<path d="M72.0882 19.6382H61.8865C61.5822 19.6382 61.3102 19.4095 61.2814 19.0995C61.2478 18.7428 61.521 18.4426 61.8613 18.4426H71.6233C72.2272 18.4426 72.7173 17.9395 72.7173 17.3196V14.0415C72.7173 13.4215 72.2272 12.9185 71.6233 12.9185H59.3367C58.7531 12.9185 58.2439 13.3699 58.2067 13.9677C58.166 14.6221 58.6705 15.167 59.2995 15.167H69.0963C69.3695 15.167 69.6139 15.3724 69.6402 15.6516C69.6702 15.9727 69.4246 16.2421 69.119 16.2421H59.2983C58.6944 16.2421 58.2043 16.7452 58.2043 17.3651V20.1881C58.2043 21.1524 58.9652 21.9335 59.9046 21.9335H72.0894C72.7065 21.9335 73.2074 21.4194 73.2074 20.7859C73.2074 20.1524 72.7065 19.6382 72.0882 19.6382Z" fill="#FF0049"/>
<path d="M59.0071 3.3272H60.3V5.93369H59.1113C58.4427 5.93369 57.8999 6.49091 57.8999 7.17728C57.8999 7.86365 58.4427 8.42086 59.1113 8.42086H71.7862C72.4548 8.42086 72.9976 7.86365 72.9976 7.17728C72.9976 6.49091 72.4548 5.93369 71.7862 5.93369H70.5976V3.3272H71.8904C72.5662 3.3272 73.1138 2.76507 73.1138 2.07132C73.1138 1.37756 72.5662 0.81543 71.8904 0.81543H59.0071C58.3313 0.81543 57.7837 1.37756 57.7837 2.07132C57.7849 2.76507 58.3325 3.3272 59.0071 3.3272ZM63.3758 3.3272H67.5229V5.93369H63.3758V3.3272Z" fill="#FF0049"/>
<path d="M12.7327 8.10502C12.704 8.08165 12.674 8.05828 12.6417 8.03736L11.5848 7.35837C10.4357 6.61911 9.11407 6.19105 7.75648 6.17629C7.68338 6.17506 7.61029 6.17629 7.5372 6.17752C3.43566 6.25132 0.0830122 9.68564 0.00153261 13.8961C-0.0835417 18.3206 3.38414 21.9345 7.675 21.9345C9.60055 21.9345 11.3596 21.2051 12.7076 20.0021V11.4655C12.7076 11.4077 12.71 11.3499 12.7112 11.2921V8.69667C12.7112 8.49741 12.7183 8.29937 12.7327 8.10502Z" fill="#653FFB"/>
<path d="M21.3252 0.816895C20.2013 0.816895 19.1337 1.0666 18.1715 1.51311H18.1619C15.4958 2.74808 13.6398 5.49849 13.6398 8.69663V19.6577C13.6398 20.1497 14.2305 20.3822 14.5504 20.0156L18.1607 15.8838V15.8814L18.1595 15.8789H18.1607H18.1703C19.1325 16.3254 20.1989 16.5751 21.324 16.5751C25.5634 16.5751 28.9999 13.0473 28.9999 8.6954C28.9999 4.34469 25.5634 0.816895 21.3252 0.816895Z" fill="#FF0049"/>
</svg>
