<svg width="27" height="27" viewBox="0 0 27 27" fill="none" xmlns="http://www.w3.org/2000/svg">
<path d="M23.625 23.625L18.7391 18.7391M18.7391 18.7391C19.5749 17.9034 20.2378 16.9112 20.6901 15.8192C21.1424 14.7273 21.3752 13.5569 21.3752 12.375C21.3752 11.1931 21.1424 10.0227 20.6901 8.93075C20.2378 7.83879 19.5749 6.84661 18.7391 6.01086C17.9034 5.17511 16.9112 4.51216 15.8192 4.05986C14.7273 3.60755 13.5569 3.37476 12.375 3.37476C11.1931 3.37476 10.0227 3.60755 8.93075 4.05986C7.83879 4.51216 6.84661 5.17511 6.01086 6.01086C4.32299 7.69873 3.37476 9.98798 3.37476 12.375C3.37476 14.762 4.32299 17.0512 6.01086 18.7391C7.69873 20.427 9.98798 21.3752 12.375 21.3752C14.762 21.3752 17.0512 20.427 18.7391 18.7391Z" stroke="#CCCCCC" stroke-width="2.5" stroke-linecap="round" stroke-linejoin="round"/>
</svg>
